<?xml version="1.0" encoding="UTF-8"?>
<svg version="1.1" xmlns="http://www.w3.org/2000/svg" width="48" height="48">
<path d="M0 0 C2.09896875 0.04736535 4.19286515 0.04108037 6.29223633 0.02783203 C14.68763885 0.06403041 20.41408232 0.55006864 26.53637695 6.67236328 C26.7668457 9.45751953 26.7668457 9.45751953 26.72387695 12.73486328 C26.71743164 13.81896484 26.71098633 14.90306641 26.7043457 16.02001953 C26.53637695 18.67236328 26.53637695 18.67236328 25.53637695 19.67236328 C25.42821905 21.04043973 25.38067524 22.41344625 25.3605957 23.78564453 C25.33674805 24.62160156 25.31290039 25.45755859 25.28833008 26.31884766 C25.24565042 28.08423335 25.21424369 29.84993061 25.19458008 31.61572266 C25.16686523 32.45554687 25.13915039 33.29537109 25.1105957 34.16064453 C25.09601318 34.92932861 25.08143066 35.6980127 25.06640625 36.48999023 C24.29300796 39.67442473 23.21038271 40.77797876 20.53637695 42.67236328 C17.69533863 43.07028884 15.24955401 43.23408079 12.41137695 43.20361328 C11.62746582 43.20744019 10.84355469 43.21126709 10.03588867 43.21520996 C8.38174146 43.21792681 6.72755113 43.21058139 5.07348633 43.19384766 C2.54451534 43.1724322 0.01838481 43.19365425 -2.51049805 43.21923828 C-4.1198793 43.21659496 -5.7292588 43.21146989 -7.33862305 43.20361328 C-8.09288574 43.21171021 -8.84714844 43.21980713 -9.62426758 43.22814941 C-13.05136757 43.16707663 -15.10789752 42.92437505 -17.93554688 40.92114258 C-19.63351701 38.42234038 -19.98111805 37.15070686 -20.0378418 34.16064453 C-20.06555664 33.32082031 -20.09327148 32.48099609 -20.12182617 31.61572266 C-20.13149414 30.74753906 -20.14116211 29.87935547 -20.15112305 28.98486328 C-20.19302375 27.25169769 -20.2384048 25.51861153 -20.2878418 23.78564453 C-20.29904053 23.02034424 -20.31023926 22.25504395 -20.32177734 21.46655273 C-20.2700923 19.6495012 -20.2700923 19.6495012 -21.46362305 18.67236328 C-21.8425293 16.16064453 -21.8425293 16.16064453 -22.02612305 12.98486328 C-22.10991211 11.94974609 -22.19370117 10.91462891 -22.2800293 9.84814453 C-21.21695744 5.71284587 -19.69838255 4.19232544 -16.19824219 1.83032227 C-11.01253863 -0.36553453 -5.53874086 -0.13374524 0 0 Z " fill="#D99F83" transform="translate(21.463623046875,5.32763671875)"/>
<path d="M0 0 C4.4075 2.7675 4.4075 2.7675 5.6875 4.6875 C6 7.75 6 7.75 5.6875 10.6875 C5.0275 11.3475 4.3675 12.0075 3.6875 12.6875 C3.35111941 14.68648856 3.35111941 14.68648856 3.34375 16.96875 C3.29927734 18.23138672 3.29927734 18.23138672 3.25390625 19.51953125 C3.23199219 20.39996094 3.21007812 21.28039062 3.1875 22.1875 C3.14419545 23.927324 3.09251116 25.66696569 3.03125 27.40625 C3.01255859 28.17904297 2.99386719 28.95183594 2.97460938 29.74804688 C2.6875 31.6875 2.6875 31.6875 0.6875 33.6875 C-2.02172801 33.88602102 -4.60553179 33.96589477 -7.3125 33.9375 C-8.04984375 33.94523437 -8.7871875 33.95296875 -9.546875 33.9609375 C-15.0591804 33.9408196 -15.0591804 33.9408196 -17.3125 31.6875 C-17.61547852 29.74804688 -17.61547852 29.74804688 -17.69140625 27.40625 C-17.72556641 26.56449219 -17.75972656 25.72273438 -17.79492188 24.85546875 C-17.82134766 23.97503906 -17.84777344 23.09460938 -17.875 22.1875 C-17.93485871 20.44777651 -17.99848069 18.7081772 -18.06640625 16.96875 C-18.09033447 16.19595703 -18.1142627 15.42316406 -18.13891602 14.62695312 C-18.2005863 12.60657805 -18.2005863 12.60657805 -19.3125 10.6875 C-19.6875 7.875 -19.6875 7.875 -19.3125 4.6875 C-14.02935248 -1.73794969 -7.63520696 -3.02527068 0 0 Z " fill="#FDE6B4" transform="translate(22.3125,10.3125)"/>
</svg>
